<svg width="318" height="719" viewBox="0 0 318 719" fill="none" xmlns="http://www.w3.org/2000/svg">
<rect width="318" height="719" fill="white"/>
<path d="M279.047 40.0012H295V108.266H279.047C258.401 108.068 238.494 115.752 223.578 129.677C208.663 143.602 199.92 162.664 199.219 182.791C199.219 188.753 199.219 195.55 199.219 202.228C199.219 251.235 199.219 314.671 157.778 359.386C199.525 404.101 199.342 467.537 199.219 516.604C199.219 523.222 199.219 529.721 199.219 536.041C199.92 556.168 208.663 575.23 223.578 589.155C238.494 603.08 258.401 610.764 279.047 610.566H295V678.771H279.047C240.039 678.924 202.521 664.17 174.53 637.67C146.538 611.17 130.3 575.031 129.294 536.995C129.294 530.317 129.294 523.461 129.294 516.426C129.294 453.407 126.421 410.54 84.4903 389.852L23 359.386L84.4903 328.98C126.421 308.232 129.477 265.365 129.294 202.406C129.294 195.371 129.294 188.456 129.294 181.838C130.285 143.791 146.516 107.637 174.509 81.1239C202.502 54.6109 240.029 39.8486 279.047 40.0012V40.0012Z" fill="url(#paint0_linear)"/>
<defs>
<linearGradient id="paint0_linear" x1="295" y1="359" x2="23" y2="359" gradientUnits="userSpaceOnUse">
<stop stop-color="#68B5FF"/>
<stop offset="1" stop-color="#54FFFF"/>
</linearGradient>
</defs>
</svg>
