<svg width="383" height="209" viewBox="0 0 383 209" fill="none" xmlns="http://www.w3.org/2000/svg">
<path fill-rule="evenodd" clip-rule="evenodd" d="M96.4445 142H94.6182V133.977H96.4445C98.8062 134.001 101.083 133.1 102.79 131.467C104.496 129.834 105.496 127.599 105.576 125.238V122.951C105.576 117.199 105.576 109.74 110.321 104.5C105.542 99.2428 105.559 91.8009 105.576 86.0317V83.7616C105.5 81.3982 104.502 79.1583 102.796 77.5217C101.089 75.8851 98.809 74.9819 96.4445 75.0054H94.6182V67.0002H96.4445C100.913 66.9765 105.213 68.7062 108.42 71.8178C111.628 74.9294 113.487 79.1748 113.598 83.6421V86.0659C113.598 93.4566 113.923 98.4918 118.719 100.916L125.751 104.5L118.736 108.067C113.923 110.508 113.616 115.526 113.616 122.934V125.341C113.508 129.814 111.649 134.066 108.437 137.182C105.226 140.298 100.919 142.028 96.4445 142ZM47.0649 142H45.2385C40.7817 142.001 36.5012 140.259 33.3117 137.146C30.1223 134.033 28.2769 129.796 28.1699 125.341V122.934C28.1699 115.526 27.8456 110.508 23.0493 108.067L16 104.5L23.0493 100.915C27.8456 98.4917 28.1699 93.4564 28.1699 86.0657V83.642C28.2813 79.1895 30.1286 74.9569 33.3176 71.8476C36.5066 68.7383 40.7846 66.9987 45.2385 67.0001H47.0649V75.0053H45.2385C42.874 74.9818 40.5942 75.885 38.8875 77.5216C37.1807 79.1582 36.1825 81.3981 36.1068 83.7615V86.0316C36.1068 91.8008 36.1068 99.2427 31.3617 104.5C36.1409 109.74 36.1239 117.199 36.1068 122.951V125.238C36.1869 127.599 37.1869 129.834 38.8933 131.467C40.5996 133.1 42.8768 134.001 45.2385 133.977H47.0649V142ZM74.2903 128.362H82.3125V109.16H85.5214C87.7393 109.16 89.9075 108.502 91.7516 107.27C93.5958 106.038 95.0331 104.286 95.8819 102.237C96.7306 100.188 96.9527 97.9333 96.52 95.758C96.0873 93.5827 95.0193 91.5845 93.451 90.0162C91.8826 88.4479 89.8845 87.3799 87.7092 86.9472C85.5339 86.5145 83.2791 86.7365 81.23 87.5853C79.1809 88.4341 77.4295 89.8714 76.1973 91.7156C74.965 93.5597 74.3073 95.7278 74.3073 97.9458V101.138H67.4799V97.9458C67.4799 95.7278 66.8222 93.5597 65.59 91.7156C64.3578 89.8714 62.6064 88.4341 60.5573 87.5853C58.5082 86.7365 56.2534 86.5145 54.0781 86.9472C51.9028 87.3799 49.9046 88.4479 48.3363 90.0162C46.768 91.5845 45.6999 93.5827 45.2672 95.758C44.8345 97.9333 45.0566 100.188 45.9054 102.237C46.7542 104.286 48.1915 106.038 50.0356 107.27C51.8798 108.502 54.0479 109.16 56.2658 109.16H59.3894V128.362H67.4628V109.16H74.2903V128.362ZM85.5043 101.052H82.3125V97.8604C82.3091 97.2243 82.4949 96.6016 82.8462 96.0713C83.1975 95.541 83.6985 95.127 84.2855 94.882C84.8726 94.637 85.5192 94.5721 86.1432 94.6953C86.7673 94.8186 87.3406 95.1246 87.7904 95.5744C88.2402 96.0242 88.5462 96.5975 88.6694 97.2215C88.7927 97.8456 88.7277 98.4922 88.4827 99.0793C88.2377 99.6663 87.8238 100.167 87.2935 100.519C86.7632 100.87 86.1404 101.056 85.5043 101.052ZM54.1494 95.7524C54.7013 95.1588 55.4574 94.7959 56.2658 94.7369C57.1155 94.7414 57.9291 95.0809 58.5299 95.6817C59.1307 96.2825 59.4702 97.0961 59.4747 97.9458V101.138H56.2658C55.4574 101.079 54.7013 100.716 54.1494 100.122C53.5976 99.5283 53.2908 98.7478 53.2908 97.9372C53.2908 97.1267 53.5976 96.3461 54.1494 95.7524ZM164.974 112.232L170.624 117.967C168.888 120.004 166.728 121.638 164.296 122.755C161.865 123.872 159.218 124.446 156.542 124.436C151.789 124.436 147.23 122.548 143.869 119.187C140.508 115.826 138.62 111.267 138.62 106.514C138.62 101.761 140.508 97.2024 143.869 93.8414C147.23 90.4803 151.789 88.5921 156.542 88.5921C159.197 88.5842 161.822 89.1559 164.234 90.2673C166.646 91.3787 168.785 93.0031 170.504 95.027L164.53 100.335C163.535 99.2015 162.309 98.2937 160.934 97.6725C159.559 97.0514 158.068 96.7313 156.559 96.7338C155.276 96.7165 154.003 96.961 152.817 97.4525C151.631 97.944 150.559 98.672 149.664 99.5922C148.769 100.512 148.072 101.605 147.614 102.804C147.156 104.003 146.947 105.283 147.001 106.565C146.945 107.849 147.152 109.131 147.609 110.332C148.065 111.533 148.763 112.628 149.657 113.55C150.552 114.472 151.626 115.201 152.813 115.694C154 116.186 155.274 116.431 156.559 116.414C158.196 116.452 159.817 116.091 161.283 115.363C162.749 114.634 164.016 113.56 164.974 112.232ZM205.579 116.725C207.541 113.698 208.558 110.155 208.5 106.548C208.496 104.176 208.021 101.828 207.102 99.6406C206.183 97.4533 204.84 95.4701 203.149 93.8061C201.458 92.1422 199.453 90.8305 197.251 89.9471C195.05 89.0638 192.694 88.6264 190.322 88.6603C186.715 88.6607 183.189 89.7346 180.194 91.7451C177.198 93.7557 174.869 96.612 173.502 99.9506C172.135 103.289 171.792 106.959 172.518 110.493C173.243 114.027 175.003 117.265 177.575 119.795C180.146 122.325 183.412 124.033 186.957 124.702C190.502 125.37 194.166 124.968 197.482 123.548C200.798 122.128 203.617 119.752 205.579 116.725ZM199.256 102.704C199.678 103.939 199.838 105.248 199.727 106.548C199.838 107.848 199.678 109.157 199.256 110.392C198.835 111.627 198.162 112.761 197.279 113.722C196.397 114.683 195.324 115.451 194.129 115.975C192.935 116.5 191.644 116.771 190.339 116.771C189.034 116.771 187.744 116.5 186.549 115.975C185.355 115.451 184.282 114.683 183.4 113.722C182.517 112.761 181.844 111.627 181.422 110.392C181.001 109.157 180.841 107.848 180.952 106.548C180.841 105.248 181.001 103.939 181.422 102.704C181.844 101.469 182.517 100.335 183.4 99.3742C184.282 98.4131 185.355 97.6458 186.549 97.1209C187.744 96.596 189.034 96.325 190.339 96.325C191.644 96.325 192.935 96.596 194.129 97.1209C195.324 97.6458 196.397 98.4131 197.279 99.3742C198.162 100.335 198.835 101.469 199.256 102.704ZM264.502 101.667V123.583H255.882V103.903C255.882 99.2257 254.175 96.7166 249.771 96.7166C248.376 96.8046 247.027 97.2536 245.857 98.0196C244.687 98.7856 243.736 99.8423 243.098 101.086V123.583H234.478V103.903C234.478 99.2257 232.771 96.7166 228.367 96.7166C226.972 96.8046 225.623 97.2536 224.453 98.0196C223.283 98.7856 222.332 99.8423 221.693 101.086V123.583H213.159V89.5308H221.199V94.4807C222.231 92.7265 223.699 91.2689 225.46 90.2491C227.222 89.2293 229.217 88.682 231.252 88.6603C239.445 88.6603 241.817 94.6343 241.817 94.6343C242.906 92.7439 244.492 91.1877 246.403 90.1346C248.314 89.0815 250.476 88.5716 252.656 88.6603C259.381 88.6603 264.502 93.4736 264.502 101.667ZM322.707 123.583V101.667C322.707 93.4736 317.671 88.6603 310.844 88.6603C308.664 88.5716 306.501 89.0815 304.591 90.1346C302.68 91.1877 301.094 92.7439 300.005 94.6343C300.005 94.6343 297.633 88.6603 289.44 88.6603C287.405 88.682 285.41 89.2293 283.648 90.2491C281.887 91.2689 280.419 92.7265 279.386 94.4807V89.5308H271.33V123.583H279.864V101.086C280.516 99.8276 281.486 98.7619 282.678 97.9952C283.87 97.2285 285.242 96.7877 286.658 96.7166C290.959 96.7166 292.768 99.2257 292.768 103.903V123.583H301.388V101.086C302.027 99.8423 302.978 98.7856 304.147 98.0196C305.317 97.2536 306.666 96.8046 308.062 96.7166C312.363 96.7166 314.172 99.2257 314.172 103.903V123.583H322.707ZM335.201 72.8379C336.321 72.8413 337.415 73.1765 338.344 73.8012C339.274 74.4259 339.998 75.3121 340.424 76.3479C340.85 77.3836 340.96 78.5225 340.739 79.6206C340.519 80.7187 339.978 81.7269 339.184 82.5177C338.391 83.3085 337.382 83.8465 336.283 84.0638C335.184 84.281 334.045 84.1678 333.011 83.7384C331.977 83.309 331.092 82.5827 330.471 81.6512C329.849 80.7196 329.517 79.6247 329.517 78.5047C329.512 77.7578 329.656 77.0174 329.94 76.3267C330.225 75.636 330.643 75.0088 331.172 74.4814C331.701 73.9541 332.33 73.5372 333.021 73.255C333.713 72.9729 334.454 72.8311 335.201 72.8379ZM330.882 89.4968H339.502V123.583H330.882V89.4968ZM351.638 89.5307H344.964V97.2799H351.638V112.3C351.548 113.872 351.784 115.446 352.332 116.922C352.879 118.399 353.726 119.746 354.82 120.879C355.913 122.012 357.229 122.907 358.684 123.508C360.14 124.108 361.704 124.401 363.278 124.368H367.972V116.328H364.712C362.425 116.328 360.257 115.099 360.257 110.935V97.2799H367.887V89.5307H360.172V79.4091H351.638V89.5307Z" fill="white"/>
</svg>
