<svg width="76" height="76" viewBox="0 0 76 76" fill="none" xmlns="http://www.w3.org/2000/svg">
<path d="M56.8678 40.2353H62.9727C63.8954 42.8369 66.38 44.7059 69.2941 44.7059C72.9917 44.7059 76 41.6976 76 38C76 34.3024 72.9917 31.2941 69.2941 31.2941C66.38 31.2941 63.8954 33.1631 62.9727 35.7647H56.8678C56.4479 32.1973 55.0365 28.9292 52.9164 26.2446L58.6839 20.4771C60.2738 21.4669 62.085 21.9646 63.8975 21.9646C66.4243 21.9646 68.9511 21.0028 70.8746 19.0793C74.7219 15.2322 74.7219 8.97232 70.8746 5.12523C67.0275 1.27814 60.7678 1.27799 56.9206 5.12523C53.6171 8.4287 53.1531 13.5097 55.5228 17.3159L49.7553 23.0834C47.0708 20.9633 43.8025 19.5521 40.2351 19.132V13.0273C42.8367 12.1046 44.7057 9.61996 44.7057 6.70588C44.7057 3.00826 41.6975 0 37.9999 0C34.3022 0 31.294 3.00826 31.294 6.70588C31.294 9.61996 33.1628 12.1046 35.7646 13.0273V19.1322C32.1972 19.5521 28.9289 20.9635 26.2444 23.0836L20.4772 17.3161C22.8469 13.5098 22.3829 8.42885 19.0794 5.12538C15.2323 1.27814 8.97247 1.27829 5.12538 5.12538C1.27814 8.97247 1.27814 15.2323 5.12538 19.0794C8.39472 22.3488 13.4641 22.8754 17.3161 20.4772L23.0836 26.2447C20.9635 28.9293 19.5523 32.1975 19.1322 35.7649H13.0273C12.1046 33.1633 9.61996 31.2943 6.70588 31.2943C3.00826 31.2943 0 34.3025 0 38.0002C0 41.6978 3.00826 44.706 6.70588 44.706C9.61996 44.706 12.1046 42.837 13.0273 40.2354H19.1322C19.5521 43.8028 20.9635 47.071 23.0836 49.7556L17.3161 55.5228C13.5098 53.1531 8.42885 53.6173 5.12538 56.9206C1.27814 60.7677 1.27814 67.0275 5.12538 70.8746C7.04893 72.7982 9.5757 73.7599 12.1025 73.7599C14.6291 73.7599 17.1559 72.7982 19.0794 70.8746C22.3829 67.5712 22.8469 62.4902 20.4772 58.6839L26.2447 52.9164C28.9292 55.0365 32.1975 56.4477 35.7649 56.8678V62.9727C33.1631 63.8954 31.2943 66.38 31.2943 69.2941C31.2943 72.9917 34.3025 76 38.0002 76C41.6978 76 44.706 72.9917 44.706 69.2941C44.706 66.38 42.837 63.8954 40.2354 62.9727V56.8678C43.8028 56.4479 47.0711 55.0365 49.7556 52.9164L55.5231 58.6839C53.1534 62.4902 53.6174 67.5712 56.9209 70.8746C58.8444 72.7982 61.3712 73.7599 63.8978 73.7599C66.4246 73.7599 68.9514 72.7982 70.8749 70.8746C74.7222 67.0275 74.7222 60.7677 70.8749 56.9206C67.5716 53.6171 62.4905 53.1531 58.6842 55.5228L52.9167 49.7553C55.0367 47.0708 56.4479 43.8027 56.8678 40.2353V40.2353ZM34.6471 38C34.6471 36.1511 36.1511 34.6471 38 34.6471C39.8489 34.6471 41.3529 36.1511 41.3529 38C41.3529 39.8489 39.8489 41.3529 38 41.3529C36.1511 41.3529 34.6471 39.8489 34.6471 38ZM38 45.8235C41.1643 45.8235 43.8219 48.0272 44.5232 50.9801C40.4284 53.0464 35.5734 53.0473 31.4767 50.9801C32.1781 48.0272 34.8357 45.8235 38 45.8235ZM69.2941 35.7647C70.5267 35.7647 71.5294 36.7675 71.5294 38C71.5294 39.2325 70.5267 40.2353 69.2941 40.2353C68.0616 40.2353 67.0588 39.2325 67.0588 38C67.0588 36.7675 68.0616 35.7647 69.2941 35.7647ZM60.0817 8.28638C61.1338 7.23446 62.5158 6.70842 63.8975 6.70842C65.2794 6.70842 66.6614 7.23446 67.7135 8.28638C69.8175 10.3905 69.8175 13.8141 67.7135 15.9181C65.6093 18.0221 62.1859 18.0223 60.0817 15.9181C57.9777 13.8141 57.9777 10.3905 60.0817 8.28638V8.28638ZM38 4.47059C39.2325 4.47059 40.2353 5.47334 40.2353 6.70588C40.2353 7.93842 39.2325 8.94118 38 8.94118C36.7675 8.94118 35.7647 7.93842 35.7647 6.70588C35.7647 5.47334 36.7675 4.47059 38 4.47059ZM38 23.4706C46.0116 23.4706 52.5294 29.9884 52.5294 38C52.5294 41.9831 50.9178 45.5967 48.3129 48.2241C47.4195 46.0921 45.8827 44.2955 43.9478 43.074C45.1158 41.7067 45.8235 39.935 45.8235 38C45.8235 33.686 42.314 30.1765 38 30.1765C33.686 30.1765 30.1765 33.686 30.1765 38C30.1765 39.9349 30.884 41.7067 32.0522 43.074C30.1173 44.2955 28.5805 46.0921 27.6871 48.2241C25.0822 45.5967 23.4706 41.9831 23.4706 38C23.4706 29.9884 29.9884 23.4706 38 23.4706ZM8.28638 15.9183C6.18238 13.8141 6.18238 10.3905 8.28638 8.28653C10.3905 6.18253 13.814 6.18238 15.9181 8.28653C18.0221 10.3907 18.0221 13.8143 15.9181 15.9183C13.8141 18.0223 10.3907 18.0223 8.28638 15.9183V15.9183ZM6.70588 40.2353C5.47334 40.2353 4.47059 39.2325 4.47059 38C4.47059 36.7675 5.47334 35.7647 6.70588 35.7647C7.93842 35.7647 8.94118 36.7675 8.94118 38C8.94118 39.2325 7.93842 40.2353 6.70588 40.2353ZM15.9183 67.7136C13.8141 69.8178 10.3907 69.8176 8.28653 67.7136C6.18253 65.6095 6.18253 62.1859 8.28653 60.0819C10.3907 57.9779 13.8141 57.9777 15.9183 60.0819C18.0223 62.1859 18.0223 65.6095 15.9183 67.7136ZM38 71.5294C36.7675 71.5294 35.7647 70.5267 35.7647 69.2941C35.7647 68.0616 36.7675 67.0588 38 67.0588C39.2325 67.0588 40.2353 68.0616 40.2353 69.2941C40.2353 70.5267 39.2325 71.5294 38 71.5294ZM67.7136 60.0817C69.8176 62.1859 69.8176 65.6095 67.7136 67.7135C65.6095 69.8175 62.186 69.8176 60.0819 67.7135C57.9779 65.6093 57.9779 62.1857 60.0819 60.0817C62.1859 57.9777 65.6093 57.9776 67.7136 60.0817Z" fill="#FF6AB9"/>
</svg>
