<svg width="64" height="64" viewBox="0 0 64 64" fill="none" xmlns="http://www.w3.org/2000/svg">
<rect width="64" height="64" fill="white"/>
<path d="M47.8887 33.8824H53.0296C53.8067 36.0732 55.899 37.6471 58.3529 37.6471C61.4667 37.6471 64 35.1138 64 32C64 28.8862 61.4667 26.3529 58.3529 26.3529C55.899 26.3529 53.8067 27.9268 53.0296 30.1176H47.8887C47.5351 27.1135 46.3465 24.3614 44.5612 22.1007L49.418 17.2439C50.7569 18.0774 52.2821 18.4965 53.8084 18.4965C55.9363 18.4965 58.0641 17.6866 59.6839 16.0668C62.9237 12.8271 62.9237 7.55564 59.6839 4.31598C56.4442 1.07633 51.1729 1.0762 47.9331 4.31598C45.1512 7.09785 44.7605 11.3766 46.756 14.5818L41.8992 19.4387C39.6386 17.6533 36.8863 16.4649 33.8822 16.1112V10.9704C36.073 10.1933 37.6469 8.10102 37.6469 5.64706C37.6469 2.53327 35.1137 0 31.9999 0C28.8861 0 26.3528 2.53327 26.3528 5.64706C26.3528 8.10102 27.9266 10.1933 30.1175 10.9704V16.1113C27.1134 16.4649 24.3612 17.6535 22.1006 19.4388L17.244 14.582C19.2395 11.3767 18.8488 7.09798 16.0669 4.31611C12.8272 1.07633 7.55577 1.07646 4.31611 4.31611C1.07633 7.55577 1.07633 12.8272 4.31611 16.0669C7.06924 18.82 11.3382 19.2635 14.582 17.244L19.4388 22.1008C17.6535 24.3615 16.4651 27.1137 16.1113 30.1178H10.9704C10.1933 27.927 8.10102 26.3531 5.64706 26.3531C2.53327 26.3531 0 28.8863 0 32.0001C0 35.1139 2.53327 37.6472 5.64706 37.6472C8.10102 37.6472 10.1933 36.0733 10.9704 33.8825H16.1113C16.4649 36.8866 17.6535 39.6387 19.4388 41.8994L14.582 46.756C11.3767 44.7605 7.09798 45.1514 4.31611 47.9331C1.07633 51.1728 1.07633 56.4442 4.31611 59.6839C5.93594 61.3037 8.06375 62.1136 10.1916 62.1136C12.3192 62.1136 14.4471 61.3037 16.0669 59.6839C18.8488 56.902 19.2395 52.6233 17.244 49.418L22.1008 44.5612C24.3614 46.3465 27.1137 47.5349 30.1178 47.8887V53.0296C27.9268 53.8067 26.3531 55.899 26.3531 58.3529C26.3531 61.4667 28.8863 64 32.0001 64C35.1139 64 37.6472 61.4667 37.6472 58.3529C37.6472 55.899 36.0733 53.8067 33.8825 53.0296V47.8887C36.8866 47.5351 39.6388 46.3465 41.8994 44.5612L46.7563 49.418C44.7607 52.6233 45.1515 56.902 47.9334 59.6839C49.5532 61.3037 51.681 62.1136 53.8087 62.1136C55.9365 62.1136 58.0643 61.3037 59.6841 59.6839C62.9239 56.4442 62.9239 51.1728 59.6841 47.9331C56.9024 45.1512 52.6236 44.7605 49.4183 46.756L44.5614 41.8992C46.3467 39.6386 47.5351 36.8865 47.8887 33.8824ZM29.1765 32C29.1765 30.443 30.443 29.1765 32 29.1765C33.557 29.1765 34.8235 30.443 34.8235 32C34.8235 33.557 33.557 34.8235 32 34.8235C30.443 34.8235 29.1765 33.557 29.1765 32ZM32 38.5882C34.6647 38.5882 36.9027 40.444 37.4932 42.9306C34.045 44.6706 29.9565 44.6714 26.5067 42.9306C27.0974 40.444 29.3353 38.5882 32 38.5882ZM58.3529 30.1176C59.3909 30.1176 60.2353 30.9621 60.2353 32C60.2353 33.0379 59.3909 33.8824 58.3529 33.8824C57.315 33.8824 56.4706 33.0379 56.4706 32C56.4706 30.9621 57.315 30.1176 58.3529 30.1176ZM50.5951 6.97801C51.4811 6.09217 52.6449 5.64919 53.8084 5.64919C54.9721 5.64919 56.1359 6.09217 57.0219 6.97801C58.7937 8.74993 58.7937 11.6329 57.0219 13.4047C55.2499 15.1765 52.3671 15.1767 50.5951 13.4047C48.8233 11.6329 48.8233 8.74993 50.5951 6.97801ZM32 3.76471C33.0379 3.76471 33.8824 4.60913 33.8824 5.64706C33.8824 6.68499 33.0379 7.52941 32 7.52941C30.9621 7.52941 30.1176 6.68499 30.1176 5.64706C30.1176 4.60913 30.9621 3.76471 32 3.76471ZM32 19.7647C38.7466 19.7647 44.2353 25.2534 44.2353 32C44.2353 35.3542 42.8781 38.3972 40.6846 40.6098C39.9322 38.8144 38.6381 37.3015 37.0087 36.2728C37.9923 35.1214 38.5882 33.6295 38.5882 32C38.5882 28.3672 35.6328 25.4118 32 25.4118C28.3672 25.4118 25.4118 28.3672 25.4118 32C25.4118 33.6294 26.0076 35.1214 26.9913 36.2728C25.3619 37.3015 24.0678 38.8144 23.3155 40.6098C21.1219 38.3972 19.7647 35.3542 19.7647 32C19.7647 25.2534 25.2534 19.7647 32 19.7647ZM6.97801 13.4049C5.20621 11.6329 5.20621 8.74993 6.97801 6.97813C8.74993 5.20634 11.6328 5.20621 13.4047 6.97813C15.1765 8.75006 15.1765 11.6331 13.4047 13.4049C11.6329 15.1767 8.75006 15.1767 6.97801 13.4049ZM5.64706 33.8824C4.60913 33.8824 3.76471 33.0379 3.76471 32C3.76471 30.9621 4.60913 30.1176 5.64706 30.1176C6.68499 30.1176 7.52941 30.9621 7.52941 32C7.52941 33.0379 6.68499 33.8824 5.64706 33.8824ZM13.4049 57.022C11.6329 58.7939 8.75006 58.7938 6.97813 57.022C5.20634 55.2501 5.20634 52.3671 6.97813 50.5953C8.75006 48.8235 11.6329 48.8233 13.4049 50.5953C15.1767 52.3671 15.1767 55.2501 13.4049 57.022ZM32 60.2353C30.9621 60.2353 30.1176 59.3909 30.1176 58.3529C30.1176 57.315 30.9621 56.4706 32 56.4706C33.0379 56.4706 33.8824 57.315 33.8824 58.3529C33.8824 59.3909 33.0379 60.2353 32 60.2353ZM57.022 50.5951C58.7938 52.3671 58.7938 55.2501 57.022 57.0219C55.2501 58.7937 52.3672 58.7938 50.5953 57.0219C48.8235 55.2499 48.8235 52.3669 50.5953 50.5951C52.3671 48.8233 55.2499 48.8232 57.022 50.5951Z" fill="#FF6AB9"/>
</svg>
