<svg width="76" height="76" viewBox="0 0 76 76" fill="none" xmlns="http://www.w3.org/2000/svg">
<g clip-path="url(#clip0)">
<path fill-rule="evenodd" clip-rule="evenodd" d="M34.8094 31.853C36.4487 30.544 38.4268 30.5192 39.475 32.0837C40.5245 33.6498 38.3262 32.8904 36.6709 33.881C35.0155 34.8731 34.9083 38.7286 33.8601 37.1641C32.812 35.5996 33.1708 33.1628 34.8094 31.853ZM1.99026 34.6982L5.58802 35.9504L8.49092 33.5844L9.14309 37.155L12.7619 38.3481L9.81561 40.6657L10.5322 44.2256L6.93443 42.9734L4.03223 45.3401L3.38155 41.7697L-0.238732 40.5764L2.70685 38.2581L1.99026 34.6982V34.6982ZM61.3889 7.73921L66.1849 9.40921L70.056 6.2532L70.9245 11.0148L75.7509 12.6051L71.8219 15.6966L72.7772 20.4414L67.982 18.7722L64.1108 21.9282L63.2422 17.168L58.416 15.5763L62.3449 12.4848L61.3889 7.73921ZM65.338 39.8265L67.6108 40.616L69.4446 39.1222L69.8564 41.3784L72.1422 42.1311L70.2823 43.5958L70.7334 45.8443L68.4631 45.0529L66.6277 46.548L66.2172 44.2933L63.93 43.5391L65.7916 42.0731L65.338 39.8265ZM52.7103 65.7266L52.6729 71.2732C52.6646 72.4488 51.6485 73.3973 50.4047 73.3894L27.1742 73.2478C25.9304 73.24 24.9269 72.2796 24.9352 71.1039L24.9726 65.5574L22.2748 65.541C21.031 65.5332 20.0275 64.5728 20.0358 63.3972L20.0416 62.5348L9.50521 62.4715C7.50461 62.4589 6.0923 60.7902 7.30729 59.1309L20.1859 41.4889L20.2264 35.3527C20.2956 25.2826 27.2132 9.69568 38.7719 7.4348C39.1185 7.3683 39.4606 7.37929 39.7818 7.45722C51.2608 9.91251 57.9376 25.5294 57.8692 35.5817L57.827 41.7192L70.4628 59.5154C71.6445 61.1775 70.2296 62.8412 68.235 62.829L57.6836 62.7645L57.6778 63.6268C57.6703 64.8018 56.6535 65.7495 55.4103 65.7424L52.7103 65.7266V65.7266ZM29.4791 65.5842L29.4555 69.0021L48.1809 69.1169L48.2053 65.6985L29.4791 65.5842V65.5842ZM64.3595 58.5469L57.7752 49.2737L57.7134 58.5065L64.3595 58.5469ZM20.1333 49.0426L13.4231 58.2357L20.0714 58.2769L20.1333 49.0426ZM53.1865 61.4699L53.1922 60.6619L53.1924 60.6076L53.3168 42.3391L53.3626 35.5548C53.4168 27.6805 48.1619 14.0201 39.209 11.7028C30.2255 13.9119 24.7863 27.5059 24.7322 35.3802L24.6866 42.1102L24.6871 42.1653L24.5627 60.4337L24.5568 61.2961L27.1971 61.3122L27.2545 61.3124L50.4865 61.4541L53.1865 61.4699V61.4699ZM39.1163 25.3792C45.628 25.419 50.8661 30.4347 50.8241 36.5879C50.7827 42.742 45.4762 47.6929 38.9652 47.6538C32.4543 47.6133 27.2161 42.5991 27.2583 36.4444C27.2996 30.2904 32.607 25.3388 39.1163 25.3792V25.3792ZM39.0927 28.9434C43.52 28.9705 47.0819 32.3797 47.0539 36.565C47.0244 40.7501 43.4168 44.116 38.9896 44.0889C34.5615 44.0625 31.0005 40.6526 31.0299 36.4675C31.0571 32.2829 34.6655 28.9164 39.0927 28.9434Z" fill="#FF6AB9"/>
</g>
<defs>
<clipPath id="clip0">
<rect width="76" height="76" fill="white"/>
</clipPath>
</defs>
</svg>
