<svg width="64" height="65" viewBox="0 0 64 65" fill="none" xmlns="http://www.w3.org/2000/svg">
<g clip-path="url(#clip0)">
<rect width="64" height="64" transform="translate(0 0.5)" fill="white"/>
<path fill-rule="evenodd" clip-rule="evenodd" d="M26.8406 25.7129C28.0931 24.7127 29.6045 24.6938 30.4053 25.8891C31.2071 27.0856 29.5276 26.5054 28.2629 27.2623C26.9981 28.0203 26.9162 30.966 26.1154 29.7707C25.3146 28.5753 25.5887 26.7136 26.8406 25.7129ZM1.76599 27.8866L4.51477 28.8434L6.73265 27.0357L7.23093 29.7637L9.99578 30.6753L7.74475 32.446L8.29224 35.1658L5.54346 34.2091L3.3261 36.0174L2.82897 33.2895L0.0629745 32.3778L2.31347 30.6065L1.76599 27.8866ZM47.1481 7.2893L50.8123 8.56522L53.77 6.15395L54.4335 9.79195L58.121 11.0069L55.1191 13.3689L55.849 16.9941L52.1853 15.7188L49.2277 18.13L48.564 14.4931L44.8767 13.2771L47.8785 10.9151L47.1481 7.2893ZM50.1653 31.8048L51.9018 32.408L53.3028 31.2667L53.6175 32.9905L55.3639 33.5656L53.9429 34.6846L54.2875 36.4026L52.5529 35.7979L51.1506 36.9402L50.837 35.2176L49.0895 34.6413L50.5118 33.5213L50.1653 31.8048ZM40.5174 51.5932L40.4888 55.8309C40.4825 56.7291 39.7062 57.4537 38.7558 57.4477L21.0072 57.3396C20.0568 57.3336 19.2902 56.5998 19.2965 55.7016L19.325 51.4639L17.2639 51.4514C16.3136 51.4454 15.5469 50.7116 15.5532 49.8134L15.5577 49.1546L7.50759 49.1062C5.97909 49.0965 4.90004 47.8216 5.82833 46.5539L15.6679 33.0749L15.6989 28.3867C15.7518 20.6929 21.037 8.78409 29.8681 7.05672C30.1329 7.00591 30.3943 7.01431 30.6397 7.07385C39.4099 8.94975 44.5112 20.8815 44.4589 28.5616L44.4267 33.2509L54.0808 46.8477C54.9836 48.1176 53.9026 49.3886 52.3787 49.3793L44.3171 49.33L44.3127 49.9889C44.307 50.8866 43.5301 51.6106 42.5803 51.6053L40.5174 51.5932ZM22.7682 51.4844L22.7501 54.0957L37.0568 54.1835L37.0755 51.5717L22.7682 51.4844ZM49.4177 46.1077L44.3871 39.0227L44.3399 46.0768L49.4177 46.1077ZM15.6278 38.8462L10.501 45.8699L15.5805 45.9014L15.6278 38.8462ZM40.8813 48.341L40.8856 47.7236L40.8857 47.6821L40.9808 33.7245L41.0158 28.5411C41.0571 22.525 37.0423 12.0881 30.202 10.3176C23.3385 12.0054 19.1828 22.3915 19.1414 28.4077L19.1066 33.5496L19.107 33.5917L19.0119 47.5493L19.0074 48.2081L21.0247 48.2204L21.0685 48.2206L38.8184 48.3289L40.8813 48.341ZM30.1312 20.7667C35.1063 20.7971 39.1084 24.6292 39.0763 29.3305C39.0447 34.0323 34.9903 37.8149 30.0158 37.7851C25.0413 37.7541 21.0392 33.9231 21.0714 29.2208C21.103 24.519 25.1579 20.7359 30.1312 20.7667ZM30.1132 23.4899C33.4957 23.5106 36.2171 26.1153 36.1957 29.3129C36.1732 32.5105 33.4169 35.0821 30.0344 35.0614C26.6513 35.0412 23.9305 32.436 23.953 29.2384C23.9738 26.0413 26.7307 23.4692 30.1132 23.4899Z" fill="#FF6AB9"/>
</g>
<defs>
<clipPath id="clip0">
<rect width="64" height="64" fill="white" transform="translate(0 0.5)"/>
</clipPath>
</defs>
</svg>
