<svg width="76" height="76" viewBox="0 0 76 76" fill="none" xmlns="http://www.w3.org/2000/svg">
<path d="M38.2599 2.01385C39.1573 2.13297 39.3882 2.29363 39.7886 2.59004C41.6156 3.9474 40.9111 7.53471 37.8828 7.54302C37.7776 7.54302 37.6723 7.54579 37.57 7.54579C29.1282 7.65936 20.8588 11.0168 14.9688 16.7315C5.53895 25.8868 3.06603 40.815 9.60788 52.3913C14.2731 60.6408 23.0979 66.6547 32.8873 68.1339C45.8745 70.0952 59.8088 63.8181 66.2717 52.552C71.8489 42.8289 71.2672 30.2137 64.6026 20.9089C60.8465 15.665 55.3715 11.6068 49.0139 9.39069L48.7566 9.2882C47.9586 8.87822 47.8008 8.65384 47.5319 8.24386C46.3012 6.34632 48.3328 3.24102 51.2003 4.24657C65.1872 9.16077 75.076 21.9421 75.9383 35.9119C76.6252 47.0173 71.5391 58.3139 62.5155 65.5467C52.6414 73.4609 38.3446 76.1479 25.9069 72.1977C12.9811 68.0896 2.8088 57.0008 0.502495 44.0671C-1.90612 30.5821 4.4808 15.9974 16.7285 8.15522C22.94 4.17732 30.3909 2.01108 37.9822 2C38.0728 2.00554 38.1663 2.00831 38.2599 2.01385V2.01385ZM54.7811 19.5903C55.4125 19.6623 55.5791 19.7426 55.8948 19.9005C57.0932 20.5017 57.7392 21.9532 57.3125 23.2025C57.2599 23.3604 57.2365 23.3964 57.1692 23.546L46.4737 44.7652C46.0177 45.6073 45.7546 45.7486 45.094 46.0727L22.7033 56.2058C21.3353 56.7737 20.9523 56.4883 20.432 56.3083C19.0406 55.8207 18.1929 54.2224 18.6606 52.8539C18.7133 52.6988 18.7337 52.6628 18.8039 52.5132L29.4994 31.2913C29.9554 30.4519 30.2156 30.3079 30.8762 29.9866L53.2699 19.8507C53.7434 19.654 54.252 19.5626 54.7811 19.5903V19.5903ZM34.3313 34.5656L27.6462 47.8262L41.6419 41.4937L48.324 28.2303C43.6617 30.3411 38.9965 32.452 34.3313 34.5656V34.5656Z" fill="#FF6AB9"/>
</svg>
