<svg width="64" height="64" viewBox="0 0 64 64" fill="none" xmlns="http://www.w3.org/2000/svg">
<rect width="64" height="64" fill="white"/>
<path d="M32.2188 1.01166C32.9745 1.11197 33.169 1.24727 33.5062 1.49687C35.0447 2.63991 34.4515 5.66081 31.9013 5.66781C31.8127 5.66781 31.7241 5.67014 31.6379 5.67014C24.529 5.76578 17.5653 8.59306 12.6053 13.4055C4.66438 21.1152 2.58192 33.6863 8.09084 43.4348C12.0195 50.3817 19.4508 55.4461 27.6945 56.6917C38.6311 58.3433 50.3653 53.0573 55.8077 43.5701C60.5044 35.3822 60.0145 24.7589 54.4022 16.9233C51.2391 12.5074 46.6287 9.08993 41.2748 7.22374L41.0582 7.13743C40.3862 6.79218 40.2533 6.60323 40.0268 6.25799C38.9905 4.66006 40.7013 2.04507 43.1161 2.89185C54.8945 7.03012 63.2219 17.7934 63.9481 29.5574C64.5265 38.9093 60.2434 48.4222 52.6447 54.513C44.3296 61.1776 32.2902 63.4403 21.8164 60.1139C10.9315 56.6544 2.36531 47.3165 0.423153 36.4249C-1.60515 25.0692 3.7733 12.7873 14.0871 6.18334C19.3179 2.83353 25.5924 1.00933 31.985 1C32.0613 1.00467 32.1401 1.007 32.2188 1.01166ZM46.1314 15.8129C46.6631 15.8735 46.8034 15.9412 47.0693 16.0741C48.0785 16.5803 48.6225 17.8027 48.2631 18.8548C48.2188 18.9877 48.1991 19.0181 48.1425 19.144L39.1358 37.0128C38.7518 37.7219 38.5302 37.8409 37.9739 38.1138L19.1185 46.647C17.9665 47.1252 17.6441 46.8849 17.2059 46.7333C16.0342 46.3227 15.3204 44.9767 15.7142 43.8244C15.7585 43.6937 15.7758 43.6634 15.8348 43.5374L24.8416 25.6664C25.2256 24.9595 25.4447 24.8382 26.001 24.5676L44.8588 16.0322C45.2576 15.8665 45.6859 15.7895 46.1314 15.8129ZM28.9105 28.4236L23.281 39.5905L35.0668 34.2578L40.6939 23.0887C36.7678 24.8662 32.8391 26.6438 28.9105 28.4236Z" fill="#FF6AB9"/>
</svg>
