<svg width="383" height="209" viewBox="0 0 383 209" fill="none" xmlns="http://www.w3.org/2000/svg">
<path d="M161.404 112.995C162.607 115.181 164.795 117.53 168.514 119.771C169.554 120.372 170.21 121.465 170.21 122.612C170.21 124.962 167.803 126.601 165.616 125.617C159.271 122.831 148.715 115.891 148.715 101.52C148.715 95.0724 153.911 89.8813 160.365 89.8813C166.819 89.8813 171.96 95.0724 171.96 101.466C171.96 107.531 167.311 112.449 161.404 112.995Z" fill="#FF68BA"/>
<path d="M132.635 112.995C133.838 115.181 136.026 117.53 139.745 119.771C140.784 120.372 141.44 121.465 141.44 122.612C141.44 124.962 139.034 126.601 136.846 125.617C130.556 122.831 120 115.891 120 101.52C120 95.0724 125.196 89.8813 131.595 89.8813C137.995 89.8813 143.245 95.0724 143.245 101.52C143.245 107.531 138.596 112.449 132.635 112.995Z" fill="#FF68BA"/>
<path d="M222.006 97.9133C220.803 95.7276 218.615 93.3779 214.896 91.1376C213.857 90.5365 213.2 89.4436 213.2 88.2961C213.2 85.9465 215.607 84.3072 217.795 85.2907C224.139 88.0775 234.695 95.0172 234.695 109.388C234.695 115.836 229.499 121.027 223.045 121.027C216.591 121.027 211.45 115.836 211.45 109.443C211.45 103.378 216.099 98.4597 222.006 97.9133Z" fill="#FF68BA"/>
<path d="M250.776 97.9133C249.572 95.7276 247.385 93.3779 243.665 91.1376C242.626 90.5365 241.97 89.4436 241.97 88.2961C241.97 85.9465 244.376 84.3072 246.564 85.2907C252.854 88.0775 263.41 95.0172 263.41 109.388C263.41 115.836 258.214 121.027 251.815 121.027C245.416 121.027 240.165 115.836 240.165 109.388C240.165 103.378 244.814 98.4597 250.776 97.9133Z" fill="#FF68BA"/>
</svg>
