<svg width="144" height="41" viewBox="0 0 144 41" fill="none" xmlns="http://www.w3.org/2000/svg">
<path d="M41.404 27.9956C42.6073 30.1813 44.7951 32.5309 48.5144 34.7712C49.5536 35.3723 50.2099 36.4651 50.2099 37.6126C50.2099 39.9622 47.8033 41.6015 45.6155 40.618C39.2709 37.8312 28.7148 30.8916 28.7148 16.5207C28.7148 10.0729 33.9109 4.88184 40.3648 4.88184C46.8188 4.88184 51.9601 10.0729 51.9601 16.466C51.9601 22.5313 47.3111 27.4491 41.404 27.9956Z" fill="#FF68BA"/>
<path d="M12.6345 27.9956C13.8378 30.1813 16.0256 32.5309 19.7448 34.7712C20.784 35.3723 21.4404 36.4651 21.4404 37.6126C21.4404 39.9622 19.0338 41.6015 16.846 40.618C10.5561 37.8312 0 30.8916 0 16.5207C0 10.0729 5.19601 4.88184 11.5953 4.88184C17.9946 4.88184 23.2453 10.0729 23.2453 16.5207C23.2453 22.5313 18.5962 27.4491 12.6345 27.9956Z" fill="#FF68BA"/>
<path d="M102.005 12.9138C100.802 10.7281 98.6141 8.37841 94.8948 6.13804C93.8556 5.53697 93.1993 4.44411 93.1993 3.2966C93.1993 0.946947 95.6058 -0.692346 97.7936 0.29123C104.138 3.07803 114.694 10.0177 114.694 24.3888C114.694 30.8367 109.498 36.0278 103.044 36.0278C96.5903 36.0278 91.449 30.8367 91.449 24.4435C91.449 18.3781 96.0981 13.4602 102.005 12.9138Z" fill="#FF68BA"/>
<path d="M130.775 12.9138C129.571 10.7281 127.384 8.37841 123.664 6.13804C122.625 5.53697 121.969 4.44411 121.969 3.2966C121.969 0.946947 124.375 -0.692346 126.563 0.29123C132.853 3.07803 143.409 10.0177 143.409 24.3888C143.409 30.8367 138.213 36.0278 131.814 36.0278C125.415 36.0278 120.164 30.8367 120.164 24.3888C120.164 18.3781 124.813 13.4602 130.775 12.9138Z" fill="#FF68BA"/>
</svg>
