<svg width="113" height="24" viewBox="0 0 113 24" fill="none" xmlns="http://www.w3.org/2000/svg">
<g clip-path="url(#clip0)">
<path d="M31.2584 6.09998C31.2584 5.83598 31.2584 5.57758 31.2584 5.32798C31.2216 3.89871 30.6266 2.54065 29.6009 1.54465C28.5751 0.548656 27.2002 -0.0061004 25.7704 -0.000817099H25.1856V2.55918H25.7696C26.5263 2.55124 27.256 2.8398 27.8027 3.3631C28.3493 3.8864 28.6694 4.60287 28.6944 5.35918C28.6944 5.59518 28.6944 5.83918 28.6944 6.08958C28.6896 7.92958 28.684 10.3152 30.2144 11.9952C28.6848 13.6752 28.6896 16.0592 28.6944 17.9008C28.6944 18.1504 28.6944 18.3952 28.6944 18.6312C28.6694 19.3875 28.3493 20.104 27.8027 20.6273C27.256 21.1506 26.5263 21.4391 25.7696 21.4312H25.1848V23.9912H25.7696C27.1994 23.9965 28.5743 23.4417 29.6001 22.4457C30.6258 21.4497 31.2208 20.0917 31.2576 18.6624C31.2576 18.4128 31.2576 18.1544 31.2576 17.8904C31.252 15.5232 31.3632 13.9136 32.8992 13.1344L35.152 11.9912L32.8992 10.8488C31.364 10.0776 31.2528 8.46718 31.2584 6.09998Z" fill="white"/>
<path d="M6.4608 18.6369C6.4608 18.3969 6.4608 18.1569 6.4608 17.9065C6.4648 16.0665 6.4712 13.6817 4.9408 12.0009C6.4704 10.3209 6.4608 7.93773 6.4608 6.09533C6.4608 5.84573 6.4608 5.60092 6.4608 5.36492C6.48584 4.60861 6.80592 3.89214 7.35255 3.36884C7.89917 2.84554 8.62891 2.55698 9.3856 2.56492H9.9704V0.00492315H9.3856C7.9558 -0.000564986 6.58071 0.554127 5.55491 1.55017C4.52911 2.54621 3.93419 3.90438 3.8976 5.33373C3.8976 5.58333 3.8976 5.84173 3.8976 6.10573C3.9032 8.47293 3.792 10.0825 2.256 10.8617L0 12.0009L2.2544 13.1441C3.7904 13.9233 3.9008 15.5329 3.896 17.9001C3.896 18.1641 3.896 18.4225 3.896 18.6721C3.93279 20.1014 4.52778 21.4595 5.55353 22.4555C6.57929 23.4514 7.95426 24.0062 9.384 24.0009H9.9688V21.4409H9.384C8.62692 21.4484 7.89701 21.1591 7.35062 20.635C6.80423 20.1109 6.48482 19.3937 6.4608 18.6369Z" fill="white"/>
<path d="M22.2712 6.31672C21.3198 6.31714 20.4074 6.695 19.7343 7.36738C19.0612 8.03975 18.6823 8.95171 18.6808 9.90312V10.9271H16.472V9.90312C16.472 9.19364 16.2616 8.50009 15.8675 7.91018C15.4733 7.32027 14.913 6.86049 14.2576 6.58898C13.6021 6.31747 12.8808 6.24643 12.185 6.38485C11.4891 6.52326 10.85 6.86491 10.3483 7.36659C9.8466 7.86826 9.50495 8.50744 9.36654 9.20329C9.22812 9.89914 9.29916 10.6204 9.57067 11.2759C9.84217 11.9314 10.302 12.4916 10.8919 12.8858C11.4818 13.2799 12.1753 13.4903 12.8848 13.4903H13.9088V19.6367H16.4688V13.4919H18.6776V19.6383H21.2376V13.4919H22.2712C22.7468 13.499 23.2191 13.4115 23.6606 13.2344C24.1021 13.0573 24.504 12.7941 24.8429 12.4603C25.1817 12.1264 25.4508 11.7286 25.6345 11.2898C25.8182 10.851 25.9128 10.38 25.9128 9.90432C25.9128 9.42863 25.8182 8.95768 25.6345 8.51889C25.4508 8.08009 25.1817 7.68219 24.8429 7.34835C24.504 7.0145 24.1021 6.75138 23.6606 6.57427C23.2191 6.39716 22.7468 6.30962 22.2712 6.31672ZM13.9088 10.9287H12.8848C12.6823 10.9287 12.4843 10.8687 12.3159 10.7561C12.1475 10.6436 12.0163 10.4837 11.9388 10.2966C11.8613 10.1095 11.841 9.90358 11.8805 9.70495C11.92 9.50631 12.0175 9.32385 12.1607 9.18064C12.3039 9.03743 12.4864 8.93991 12.685 8.9004C12.8837 8.86088 13.0896 8.88116 13.2767 8.95867C13.4638 9.03617 13.6237 9.16742 13.7362 9.33581C13.8488 9.50421 13.9088 9.70219 13.9088 9.90472V10.9287ZM22.268 10.9287H21.244V9.90312C21.244 9.70059 21.3041 9.50261 21.4166 9.33421C21.5291 9.16582 21.689 9.03457 21.8761 8.95707C22.0633 8.87956 22.2691 8.85929 22.4678 8.8988C22.6664 8.93831 22.8489 9.03583 22.9921 9.17904C23.1353 9.32225 23.2328 9.50471 23.2723 9.70335C23.3118 9.90198 23.2916 10.1079 23.2141 10.295C23.1366 10.4821 23.0053 10.642 22.8369 10.7545C22.6685 10.8671 22.4705 10.9271 22.268 10.9271V10.9287Z" fill="white"/>
<path d="M45.0064 15.8071C44.1862 15.7845 43.4072 15.4428 42.8351 14.8547C42.263 14.2665 41.9429 13.4784 41.9429 12.6579C41.9429 11.8375 42.263 11.0493 42.8351 10.4612C43.4072 9.87311 44.1862 9.53138 45.0064 9.50874C45.4889 9.5074 45.9662 9.60921 46.4062 9.80734C46.8462 10.0055 47.2387 10.2953 47.5576 10.6575L49.4656 8.95674C48.913 8.31698 48.2281 7.80482 47.4582 7.45564C46.6883 7.10647 45.8517 6.9286 45.0064 6.93434C44.2434 6.9163 43.4845 7.05099 42.7744 7.3305C42.0642 7.61001 41.4171 8.02869 40.8711 8.56192C40.3251 9.09516 39.8913 9.73218 39.5951 10.4355C39.2988 11.1389 39.1462 11.8944 39.1462 12.6575C39.1462 13.4207 39.2988 14.1762 39.5951 14.8795C39.8913 15.5829 40.3251 16.2199 40.8711 16.7532C41.4171 17.2864 42.0642 17.7051 42.7744 17.9846C43.4845 18.2641 44.2434 18.3988 45.0064 18.3807C45.8624 18.3835 46.7088 18.1999 47.4867 17.8426C48.2646 17.4854 48.9554 16.963 49.5112 16.3119L47.696 14.4719C47.39 14.8964 46.9852 15.2399 46.5165 15.4725C46.0478 15.7052 45.5295 15.8201 45.0064 15.8071Z" fill="white"/>
<path d="M55.8096 6.9352C54.6815 6.95318 53.5839 7.30412 52.6546 7.94394C51.7254 8.58377 51.0059 9.48394 50.5867 10.5314C50.1674 11.5788 50.067 12.7268 50.2981 13.8311C50.5293 14.9353 51.0816 15.9467 51.8857 16.7381C52.6898 17.5295 53.7098 18.0656 54.8177 18.2791C55.9255 18.4925 57.0717 18.3739 58.1123 17.938C59.1529 17.5021 60.0415 16.7684 60.6665 15.829C61.2914 14.8897 61.6248 13.7866 61.6248 12.6584C61.6259 11.8987 61.4756 11.1464 61.1827 10.4455C60.8897 9.74455 60.4599 9.10906 59.9185 8.57618C59.377 8.04329 58.7348 7.6237 58.0293 7.34194C57.3237 7.06018 56.5691 6.92191 55.8096 6.9352ZM55.8096 15.8072C55.1808 15.8353 54.558 15.6746 54.0215 15.3456C53.4849 15.0167 53.0591 14.5347 52.7988 13.9616C52.5386 13.3886 52.4559 12.7507 52.5613 12.1303C52.6668 11.5098 52.9555 10.9351 53.3905 10.4802C53.8254 10.0252 54.3865 9.71095 55.0017 9.57775C55.6168 9.44455 56.2577 9.49854 56.8419 9.73278C57.426 9.96701 57.9267 10.3708 58.2794 10.892C58.6321 11.4133 58.8206 12.0282 58.8208 12.6576C58.8437 13.0655 58.7826 13.4738 58.6412 13.8571C58.4998 14.2405 58.2811 14.5907 57.9988 14.886C57.7164 15.1813 57.3764 15.4154 56.9998 15.5739C56.6232 15.7324 56.2181 15.8118 55.8096 15.8072Z" fill="white"/>
<path d="M75.7144 6.93515C75.0166 6.90506 74.3239 7.06706 73.7118 7.4035C73.0997 7.73993 72.5917 8.23791 72.2432 8.84315C71.9325 8.22613 71.4455 7.71534 70.844 7.37563C70.2425 7.03592 69.5536 6.8826 68.8648 6.93515C68.2135 6.94188 67.575 7.11682 67.0112 7.44299C66.4475 7.76916 65.9776 8.23549 65.6472 8.79675V7.21115H63.0728V18.1056H65.8312V10.9112C66.0354 10.5122 66.3398 10.1732 66.7146 9.92737C67.0893 9.68152 67.5215 9.53727 67.9687 9.50875C69.3479 9.50875 69.9224 10.3136 69.9224 11.8072V18.1056H72.6808V10.9112C72.8849 10.5121 73.1893 10.173 73.564 9.92717C73.9388 9.6813 74.371 9.53711 74.8184 9.50875C76.1976 9.50875 76.7728 10.3136 76.7728 11.8072V18.1056H79.5304V11.0952C79.5288 8.47515 77.9224 6.93515 75.7144 6.93515Z" fill="white"/>
<path d="M94.3545 6.93515C93.6567 6.90506 92.964 7.06706 92.3519 7.4035C91.7399 7.73993 91.2319 8.23791 90.8833 8.84315C90.5726 8.22613 90.0856 7.71534 89.4841 7.37563C88.8826 7.03592 88.1937 6.8826 87.5049 6.93515C86.8536 6.94188 86.2151 7.11682 85.6514 7.44299C85.0876 7.76916 84.6177 8.23549 84.2873 8.79675V7.21115H81.7129V18.1056H84.4713V10.9112C84.6755 10.5122 84.98 10.1732 85.3547 9.92737C85.7294 9.68152 86.1616 9.53727 86.6089 9.50875C87.9881 9.50875 88.5625 10.3136 88.5625 11.8072V18.1056H91.3209V10.9112C91.5251 10.5122 91.8295 10.1731 92.2042 9.92727C92.579 9.68141 93.0112 9.53719 93.4585 9.50875C94.8369 9.50875 95.4121 10.3136 95.4121 11.8072V18.1056H98.1697V11.0952C98.1689 8.47515 96.5609 6.93515 94.3545 6.93515Z" fill="white"/>
<path d="M102.169 1.87918C101.809 1.87902 101.458 1.98542 101.159 2.1849C100.861 2.38438 100.628 2.668 100.49 2.99986C100.353 3.33172 100.317 3.69692 100.387 4.04927C100.457 4.40161 100.63 4.72527 100.884 4.97929C101.138 5.23331 101.461 5.40628 101.814 5.47632C102.166 5.54637 102.531 5.51034 102.863 5.37279C103.195 5.23524 103.479 5.00236 103.678 4.7036C103.878 4.40484 103.984 4.05362 103.984 3.69438C103.985 3.45562 103.939 3.21896 103.848 2.9981C103.758 2.77725 103.624 2.5766 103.455 2.40776C103.286 2.23893 103.086 2.10528 102.865 2.01454C102.644 1.92381 102.407 1.8778 102.169 1.87918Z" fill="white"/>
<path d="M103.548 7.21118H100.79V18.1064H103.548V7.21118Z" fill="white"/>
<path d="M112.656 9.69354V7.21354H110.19V3.97034H107.432V7.21114H105.294V9.69114H107.432V14.5175C107.403 15.0205 107.479 15.524 107.654 15.9964C107.829 16.4688 108.1 16.8998 108.449 17.2625C108.799 17.6252 109.22 17.9116 109.685 18.1038C110.151 18.2959 110.652 18.3897 111.155 18.3791C112.266 18.3855 112.655 18.3791 112.655 18.3791V15.8079H111.615C110.879 15.8079 110.19 15.4167 110.19 14.0839V9.69354H112.656Z" fill="white"/>
</g>
<defs>
<clipPath id="clip0">
<rect width="112.655" height="24" fill="white"/>
</clipPath>
</defs>
</svg>
